<?xml version="1.0" encoding="UTF-8"?>
<svg id="Layer_1" xmlns="http://www.w3.org/2000/svg" version="1.1" viewBox="0 0 31 31">
  <!-- Generator: Adobe Illustrator 29.1.0, SVG Export Plug-In . SVG Version: 2.1.0 Build 142)  -->
  <path d="M20,31h-9c-6.1,0-11-4.9-11-11v-9C0,4.9,4.9,0,11,0h9c6.1,0,11,4.9,11,11v9c0,6.1-4.9,11-11,11ZM11,3C6.6,3,3,6.6,3,11v9c0,4.4,3.6,8,8,8h9c4.4,0,8-3.6,8-8v-9c0-4.4-3.6-8-8-8h-9Z"/>
  <path d="M15.1,23c-4.3,0-7.9-3.5-7.9-7.9s3.5-7.9,7.9-7.9,7.9,3.5,7.9,7.9-3.5,7.9-7.9,7.9ZM15.1,10.3c-2.7,0-4.9,2.2-4.9,4.9s2.2,4.9,4.9,4.9,4.9-2.2,4.9-4.9-2.2-4.9-4.9-4.9Z"/>
  <circle cx="22.9" cy="7.3" r="1.4"/>
</svg>