<?xml version="1.0" encoding="UTF-8"?>
<svg id="Layer_4" xmlns="http://www.w3.org/2000/svg" version="1.1" viewBox="0 0 595.28 841.89">
  <!-- Generator: Adobe Illustrator 29.1.0, SVG Export Plug-In . SVG Version: 2.1.0 Build 142)  -->
  <defs>
    <style>
      .st0 {
        fill: #231f20;
      }
    </style>
  </defs>
  <path class="st0" d="M421.48,214.7h-247.69c-35.59,0-64.71,29.12-64.71,64.71v247.69c0,35.59,29.12,64.71,64.71,64.71h247.69c35.59,0,64.71-29.12,64.71-64.71v-247.69c0-35.59-29.12-64.71-64.71-64.71ZM221.75,541.41h-47.6v-194.8h47.6v194.8ZM197.35,319.02c-15.2,0-25.6-11.2-25.6-25.6,0-15.2,10.8-26.4,26-26.4s26,11.2,26,26.4c.4,14.4-10,25.6-26.4,25.6ZM434.15,541.41h-47.2v-114c0-25.2-8.4-46-32.8-46-16.8,0-29.2,12-34,27.6-1.2,4-2,10-2,16v116.4h-47.6v-137.6c0-22.4-.8-40-1.6-57.2h41.2l2.4,27.6h1.2c8.8-15.6,28.4-31.6,57.2-31.6,33.6,0,63.2,22.8,63.2,79.6v119.2Z"/>
</svg>